<svg width="448" height="328" viewBox="0 0 448 328" fill="none" xmlns="http://www.w3.org/2000/svg">
<path d="M227.81 328C198.676 328 170.735 316.414 150.134 295.792C129.533 275.169 117.96 247.199 117.96 218.035V0C147.094 0 175.035 11.5856 195.636 32.2081C216.236 52.8307 227.81 80.8008 227.81 109.965V328Z" fill="url(#paint0_linear_730_114)"/>
<path d="M8.10352 328V109.972C8.10263 95.5308 10.9433 81.2306 16.4634 67.8882C21.9835 54.5458 30.0748 42.4225 40.2754 32.2105C50.476 21.9986 62.5861 13.898 75.9141 8.37127C89.2422 2.84456 103.527 -2.70046e-08 117.953 0V0V218.035C117.953 247.199 106.38 275.169 85.7791 295.792C65.1783 316.414 37.2375 328 8.10352 328H8.10352Z" fill="url(#paint1_linear_730_114)"/>
<path d="M447.517 109.973H337.667V219.945C366.802 219.943 394.742 208.356 415.343 187.732C435.944 167.109 447.517 139.138 447.517 109.973Z" fill="url(#paint2_linear_730_114)"/>
<path d="M337.667 0V109.972H447.517C447.517 80.8069 435.944 52.8361 415.343 32.2125C394.742 11.5889 366.802 0.00178348 337.667 0V0Z" fill="url(#paint3_linear_730_114)"/>
<path d="M337.659 0H227.81V109.972H337.659V0Z" fill="url(#paint4_linear_730_114)"/>
<path d="M337.659 109.018H227.81V218.99H337.659V109.018Z" fill="url(#paint5_linear_730_114)"/>
<path d="M337.639 218.982H227.81V327.993C256.777 327.994 284.572 316.539 305.143 296.122C325.713 275.705 337.393 247.979 337.639 218.982Z" fill="url(#paint6_linear_730_114)"/>
<path d="M227.81 328V219.944H118.007C118.502 248.77 130.288 276.248 150.825 296.459C171.363 316.67 199.01 327.997 227.81 328Z" fill="url(#paint7_linear_730_114)"/>
<defs>
<linearGradient id="paint0_linear_730_114" x1="154.874" y1="85.998" x2="196.029" y2="263.839" gradientUnits="userSpaceOnUse">
<stop stop-color="#470BA7"/>
<stop offset="0.51" stop-color="#4361EE"/>
<stop offset="1" stop-color="#4E5DED"/>
</linearGradient>
<linearGradient id="paint1_linear_730_114" x1="63.0285" y1="256.83" x2="63.0285" y2="118.762" gradientUnits="userSpaceOnUse">
<stop stop-color="#52FDE0"/>
<stop offset="1" stop-color="#4CC9F0"/>
</linearGradient>
<linearGradient id="paint2_linear_730_114" x1="337.822" y1="81.217" x2="390.432" y2="161.488" gradientUnits="userSpaceOnUse">
<stop stop-color="#7209B7"/>
<stop offset="1" stop-color="#F72585"/>
</linearGradient>
<linearGradient id="paint3_linear_730_114" x1="370.504" y1="59.791" x2="423.121" y2="140.069" gradientUnits="userSpaceOnUse">
<stop stop-color="#7209B7"/>
<stop offset="1" stop-color="#F72585"/>
</linearGradient>
<linearGradient id="paint4_linear_730_114" x1="281.431" y1="64.3034" x2="253.67" y2="262.243" gradientUnits="userSpaceOnUse">
<stop stop-color="#7209B7"/>
<stop offset="0.51" stop-color="#3A0CA3"/>
<stop offset="1" stop-color="#7E52EB"/>
</linearGradient>
<linearGradient id="paint5_linear_730_114" x1="296.392" y1="66.4019" x2="268.637" y2="264.341" gradientUnits="userSpaceOnUse">
<stop offset="0.01" stop-color="#7209B7"/>
<stop offset="0.51" stop-color="#3A0CA3"/>
<stop offset="1" stop-color="#7E52EB"/>
</linearGradient>
<linearGradient id="paint6_linear_730_114" x1="304.4" y1="67.5243" x2="276.638" y2="265.464" gradientUnits="userSpaceOnUse">
<stop offset="0.01" stop-color="#7209B7"/>
<stop offset="0.51" stop-color="#3A0CA3"/>
<stop offset="1" stop-color="#7E52EB"/>
</linearGradient>
<linearGradient id="paint7_linear_730_114" x1="141.445" y1="89.1048" x2="182.6" y2="266.946" gradientUnits="userSpaceOnUse">
<stop stop-color="#4CC9F0"/>
<stop offset="0.51" stop-color="#4361EE"/>
<stop offset="1" stop-color="#7E52EB"/>
</linearGradient>
</defs>
</svg>
