<svg width="262" height="60" viewBox="0 0 262 60" fill="none" xmlns="http://www.w3.org/2000/svg">
<path d="M158.184 7.24165C160.143 7.24165 161.732 5.65985 161.732 3.70859C161.732 1.75734 160.143 0.175537 158.184 0.175537C156.224 0.175537 154.635 1.75734 154.635 3.70859C154.635 5.65985 156.224 7.24165 158.184 7.24165Z" fill="#FAFAFD"/>
<path d="M77.0704 7.24165C79.03 7.24165 80.6186 5.65985 80.6186 3.70859C80.6186 1.75734 79.03 0.175537 77.0704 0.175537C75.1108 0.175537 73.5222 1.75734 73.5222 3.70859C73.5222 5.65985 75.1108 7.24165 77.0704 7.24165Z" fill="#FAFAFD"/>
<path d="M178.29 60C180.249 60 181.838 58.4181 181.838 56.4669C181.838 54.5156 180.249 52.9338 178.29 52.9338C176.33 52.9338 174.742 54.5156 174.742 56.4669C174.742 58.4181 176.33 60 178.29 60Z" fill="#FAFAFD"/>
<path d="M188.339 60C190.299 60 191.888 58.4181 191.888 56.4669C191.888 54.5156 190.299 52.9338 188.339 52.9338C186.38 52.9338 184.791 54.5156 184.791 56.4669C184.791 58.4181 186.38 60 188.339 60Z" fill="#FAFAFD"/>
<path d="M110.629 60C112.589 60 114.177 58.4181 114.177 56.4669C114.177 54.5156 112.589 52.9338 110.629 52.9338C108.67 52.9338 107.081 54.5156 107.081 56.4669C107.081 58.4181 108.67 60 110.629 60Z" fill="#FAFAFD"/>
<path d="M121.08 60C123.04 60 124.628 58.4181 124.628 56.4669C124.628 54.5156 123.04 52.9338 121.08 52.9338C119.12 52.9338 117.532 54.5156 117.532 56.4669C117.532 58.4181 119.12 60 121.08 60Z" fill="#FAFAFD"/>
<path d="M131.092 60C133.051 60 134.64 58.4181 134.64 56.4669C134.64 54.5156 133.051 52.9338 131.092 52.9338C129.132 52.9338 127.543 54.5156 127.543 56.4669C127.543 58.4181 129.132 60 131.092 60Z" fill="#FAFAFD"/>
<path d="M205.136 7.06612C207.096 7.06612 208.684 5.48431 208.684 3.53306C208.684 1.5818 207.096 0 205.136 0C203.177 0 201.588 1.5818 201.588 3.53306C201.588 5.48431 203.177 7.06612 205.136 7.06612Z" fill="#FAFAFD"/>
<path d="M220.958 6.92488C222.012 6.92488 250.723 6.92488 251.867 6.92488C252.189 6.92714 252.51 6.95014 252.829 6.99375L251.909 6.887C252.482 6.97213 253.042 7.1283 253.576 7.35188L252.749 7.00753C253.269 7.2338 253.759 7.5217 254.209 7.86497L253.517 7.32778C253.96 7.67387 254.359 8.07157 254.707 8.51235L254.167 7.82364C254.511 8.27258 254.8 8.76035 255.028 9.27681L254.682 8.45381C254.906 8.98582 255.063 9.5433 255.149 10.1136L255.025 9.19761C255.067 9.51276 255.09 9.83013 255.094 10.148C255.106 11.0588 255.469 11.9302 256.107 12.5826C256.759 13.2228 257.636 13.5847 258.552 13.5916C260.413 13.5089 262.01 12.0798 262.01 10.148C262.013 8.8018 261.745 7.46866 261.223 6.22707C260.7 4.98548 259.933 3.86053 258.968 2.91844C258.002 1.97635 256.856 1.23617 255.599 0.741461C254.342 0.246752 252.998 0.00751442 251.646 0.0378311C249.747 0.0378311 222.711 -4.76781e-05 221.03 0.0378311H220.954C219.145 0.0378311 217.413 1.62185 217.496 3.48136C217.513 4.38939 217.882 5.25555 218.527 5.89773C219.172 6.53992 220.042 6.9081 220.954 6.92488H220.958Z" fill="#FAFAFD"/>
<path d="M234.773 15.9952V43.571C234.773 45.3719 236.364 47.0971 238.231 47.0145C239.144 46.9994 240.015 46.6318 240.66 45.9892C241.305 45.3467 241.675 44.4795 241.69 43.571V15.9952C241.69 14.1942 240.099 12.469 238.231 12.5517C237.319 12.5667 236.448 12.9344 235.803 13.5769C235.158 14.2195 234.788 15.0866 234.773 15.9952Z" fill="#FAFAFD"/>
<path d="M204.517 47.0145C207.235 47.0145 214.913 47.0731 216.016 46.956C217.765 46.7894 219.471 46.316 221.054 45.5579C223.673 44.2541 225.797 42.1395 227.106 39.5318C227.866 37.9541 228.341 36.2559 228.51 34.5145C228.785 31.5343 228.031 28.55 226.373 26.0538C224.61 23.4011 221.991 21.427 218.948 20.4581C217.295 19.9312 215.566 19.8589 213.847 19.8589H204.7C202.892 19.8589 201.159 21.4429 201.242 23.3024C201.257 24.211 201.626 25.0781 202.272 25.7207C202.917 26.3632 203.788 26.7309 204.7 26.7459C207.837 26.7459 215.542 26.7459 216.258 26.832L215.338 26.7081C216.226 26.8282 217.095 27.0596 217.925 27.3968L217.098 27.0524C217.904 27.391 218.665 27.8283 219.363 28.3541L218.672 27.8169C219.389 28.3693 220.033 29.0103 220.587 29.7246L220.048 29.0359C220.575 29.7313 221.014 30.4888 221.355 31.2914L221.009 30.4684C221.35 31.294 221.582 32.1596 221.701 33.0441L221.577 32.1282C221.687 33.0028 221.687 33.8878 221.577 34.7625L221.701 33.8465C221.58 34.7307 221.348 35.5961 221.009 36.4222L221.355 35.5992C221.015 36.4022 220.576 37.1598 220.048 37.8548L220.587 37.166C220.033 37.8803 219.389 38.5214 218.672 39.0738L219.363 38.5366C218.665 39.0617 217.904 39.4989 217.098 39.8382L217.925 39.4939C217.091 39.8382 215.95 40.0999 216.258 40.0621C214.843 40.2377 204.994 40.1481 204.52 40.1481C202.712 40.1481 200.979 41.7322 201.062 43.5917C201.076 44.5008 201.444 45.3689 202.09 46.0119C202.736 46.6548 203.607 47.0219 204.52 47.0352L204.517 47.0145Z" fill="#FAFAFD"/>
<path d="M198.23 26.5979H185.486C184.466 26.6208 183.444 26.5783 182.429 26.4705L183.349 26.5944C182.076 26.4193 180.83 26.0837 179.642 25.5958L180.468 25.9402C179.284 25.4418 178.168 24.7949 177.149 24.0152L177.84 24.5524C176.937 23.8085 176.079 23.0116 175.271 22.1661L172.027 18.9395C171.377 18.299 170.737 17.6447 170.08 17.0145C167.634 14.6676 164.381 13.3397 160.985 13.3024C158.304 13.2754 155.682 14.0819 153.484 15.6096C152.196 16.5337 151.066 17.658 150.136 18.9395C149.371 20.0165 148.781 21.2064 148.386 22.4656C147.868 24.0462 147.785 25.706 147.785 27.3554V31.7942C147.753 33.2126 147.823 34.6316 147.996 36.04C148.439 38.6829 149.686 41.127 151.566 43.0435C153.447 44.9599 155.872 46.2568 158.515 46.7597C159.536 46.9286 160.569 47.0138 161.604 47.0145H190.964C192.773 47.0145 194.505 45.4305 194.422 43.571C194.407 42.6624 194.038 41.7953 193.393 41.1527C192.748 40.5102 191.877 40.1425 190.964 40.1275C180.994 40.1275 171.021 40.1757 161.05 40.1275C160.609 40.1252 160.167 40.0953 159.729 40.038L160.649 40.1619C159.801 40.0437 158.972 39.8193 158.18 39.4939L159.007 39.8382C158.236 39.5118 157.509 39.092 156.842 38.5882L157.533 39.1254C156.846 38.5958 156.229 37.9814 155.697 37.2969L156.237 37.9856C155.732 37.3204 155.31 36.5965 154.981 35.83L155.327 36.653C155.001 35.8647 154.775 35.0386 154.656 34.1943L154.781 35.1103C154.675 33.9127 154.645 32.7097 154.691 31.5083V26.9767C154.679 26.3429 154.709 25.7091 154.781 25.0793L154.656 25.9953C154.775 25.1565 155.001 24.3361 155.327 23.5538L154.981 24.3768C155.309 23.616 155.731 22.8988 156.237 22.2418L155.697 22.9305C156.207 22.2885 156.794 21.7103 157.443 21.2088L156.752 21.7459C157.413 21.2437 158.133 20.8239 158.896 20.4959L158.069 20.8403C158.855 20.5138 159.679 20.2893 160.521 20.1722L159.601 20.2962C160.45 20.1895 161.309 20.1895 162.157 20.2962L161.237 20.1722C162.099 20.2939 162.942 20.5253 163.744 20.861L162.918 20.5166C163.675 20.8388 164.391 21.2516 165.048 21.7459L164.356 21.2088C165.038 21.7705 165.685 22.3731 166.293 23.0132L169.029 25.7198C170.979 27.6516 172.857 29.6764 175.253 31.071C177.622 32.4173 180.258 33.2306 182.976 33.4539C183.747 33.5262 196.276 33.5194 198.227 33.5194C200.035 33.5194 201.768 31.9353 201.685 30.0758C201.67 29.1673 201.3 28.3001 200.655 27.6576C200.01 27.015 199.139 26.6474 198.227 26.6323L198.23 26.5979Z" fill="#FAFAFD"/>
<path d="M127.17 16.7528C127.17 18.2886 127.277 19.8726 127.084 21.4015L127.208 20.4856C127.089 21.3656 126.857 22.2267 126.516 23.0475L126.862 22.2245C126.515 23.0183 126.068 23.7656 125.534 24.4491L126.074 23.7604C125.56 24.4091 124.972 24.9952 124.32 25.5062L125.012 24.969C124.321 25.4997 123.566 25.9417 122.764 26.2845L123.591 25.9401C122.766 26.2788 121.902 26.5103 121.018 26.6288L121.938 26.5048C121.065 26.6179 120.182 26.6214 119.309 26.5152L120.229 26.6391C119.345 26.5206 118.481 26.2892 117.656 25.9504L118.483 26.2948C117.681 25.9518 116.926 25.5098 116.235 24.9794L116.927 25.5166C116.278 25.0017 115.693 24.4122 115.184 23.7604L115.723 24.4491C115.19 23.7611 114.746 23.0091 114.402 22.2108L114.748 23.0338C114.408 22.2129 114.175 21.3518 114.056 20.4718L114.181 21.3878C113.966 19.6935 114.094 17.9236 114.094 16.2225C114.094 14.0772 114.188 11.9146 113.586 9.8244C113.084 8.08887 112.237 6.47145 111.096 5.06828C109.954 3.66511 108.54 2.50482 106.939 1.65636C105.169 0.744217 103.224 0.216087 101.233 0.106769C100.242 0.074019 99.2499 0.143257 98.2729 0.313381C97.5432 0.418661 96.8275 0.604611 96.1392 0.867788C94.3315 1.52693 92.6773 2.54501 91.2769 3.86021C89.8791 5.23025 88.7898 6.88062 88.0815 8.70181C87.3552 10.458 87.1719 12.3485 87.1719 14.2321V24.8795C87.1719 27.6343 87.1719 30.4132 87.1719 33.1784C87.1948 36.7511 88.5734 40.183 91.0313 42.7858C93.6022 45.4582 97.1305 47.0093 100.846 47.1006C113.116 47.4449 125.455 47.1006 137.728 47.1006C139.537 47.1006 141.269 45.5166 141.186 43.657C141.171 42.7485 140.802 41.8813 140.157 41.2388C139.511 40.5962 138.64 40.2286 137.728 40.2135C125.538 40.2135 113.344 40.2686 101.154 40.2135C100.671 40.2107 100.19 40.1785 99.7115 40.1171L100.631 40.2411C99.7091 40.11 98.8073 39.8623 97.9478 39.5042L98.7743 39.8485C97.9387 39.4875 97.1511 39.0249 96.4296 38.4711L97.1213 39.0083C96.4415 38.4726 95.8264 37.8601 95.2884 37.1832L95.8279 37.8719C95.271 37.154 94.8063 36.3697 94.4446 35.5372L94.7904 36.3602C94.4346 35.5088 94.1905 34.6153 94.0642 33.7018L94.1887 34.6178C94.0907 33.6143 94.0584 32.6055 94.0919 31.5978V15.582C94.0497 14.4484 94.0786 13.3132 94.1783 12.1832L94.0642 13.0854C94.1829 12.2042 94.4154 11.3419 94.7559 10.52L94.41 11.3637C94.7543 10.5653 95.1981 9.8133 95.7311 9.12536L95.1916 9.81407C95.7048 9.16528 96.2934 8.57925 96.9449 8.0682L96.2533 8.60539C96.9451 8.07618 97.7002 7.63434 98.5011 7.28997L97.6746 7.63432C98.4995 7.29372 99.3657 7.06218 100.251 6.94561L99.3311 7.06958C100.206 6.95938 101.091 6.95938 101.966 7.06958L101.046 6.94561C101.931 7.06383 102.797 7.29531 103.623 7.63432L102.796 7.28997C103.598 7.63277 104.353 8.07472 105.044 8.60539L104.352 8.0682C105.004 8.57925 105.593 9.16528 106.106 9.81407L105.566 9.12536C106.088 9.81574 106.523 10.5675 106.86 11.3637L106.514 10.5407C106.854 11.3555 107.087 12.2109 107.206 13.0854L107.081 12.1694C107.168 13.085 107.197 14.0051 107.168 14.9243V18.7018C107.15 19.9105 107.22 21.119 107.378 22.3175C107.673 24.3232 108.464 26.2246 109.678 27.8513C111.02 29.6281 112.67 31.1846 114.724 32.1212C117.832 33.6351 121.407 33.8972 124.704 32.853C128.001 31.8088 130.768 29.5387 132.427 26.5152C133.511 24.5034 134.079 22.2557 134.08 19.9725V16.7631C134.08 14.9621 132.489 13.2369 130.621 13.3196C129.707 13.3303 128.834 13.6965 128.188 14.34C127.542 14.9835 127.174 15.8532 127.163 16.7631L127.17 16.7528Z" fill="#FAFAFD"/>
<path d="M77.0704 26.5978H50.3001C49.2281 26.5978 48.156 26.5978 47.084 26.5978C46.6412 26.5948 46.1989 26.5661 45.7595 26.5117L46.6793 26.6356C45.7919 26.5186 44.9235 26.2871 44.096 25.9469L44.9226 26.2913C44.1173 25.9482 43.3577 25.5076 42.6609 24.9793L43.3525 25.5165C42.6675 24.9842 42.0508 24.3701 41.5162 23.688L42.0557 24.3767C41.5244 23.6833 41.0818 22.9268 40.7381 22.1246L41.0839 22.9476C40.7454 22.1226 40.513 21.2583 40.3923 20.3753L40.5168 21.2913C40.4061 20.4178 40.4061 19.5339 40.5168 18.6604L40.3923 19.5764C40.5098 18.6927 40.7423 17.828 41.0839 17.0041L40.7381 17.8271C41.0826 17.0253 41.5251 16.2689 42.0557 15.575L41.5162 16.2637C42.0546 15.5909 42.6736 14.9861 43.3594 14.4628L42.6678 15C43.3641 14.4709 44.1239 14.0302 44.9295 13.688L44.103 14.0323C44.9315 13.6953 45.7995 13.4639 46.6863 13.3436L45.7664 13.4676C46.692 13.3539 47.6281 13.3539 48.5537 13.4676L47.6338 13.3436C48.5213 13.4607 49.3897 13.6922 50.2171 14.0323L49.3906 13.688C50.1958 14.031 50.9555 14.4717 51.6523 15L50.9607 14.4628C51.6457 14.9951 52.2624 15.6092 52.797 16.2913L52.2575 15.6026C52.7888 16.296 53.2314 17.0525 53.5751 17.8546L53.2293 17.0316C53.5677 17.8566 53.8001 18.7209 53.9209 19.604L53.7964 18.688C53.8979 19.8455 53.9267 21.0083 53.8829 22.1694V25.9986C53.8858 26.8587 53.8315 27.718 53.7203 28.5709L53.8448 27.6549C53.6316 29.1565 53.2272 30.6249 52.6414 32.0248L52.9872 31.2018C52.3948 32.6001 51.6267 33.918 50.7013 35.1239L51.2408 34.4352C50.3138 35.6251 49.2403 36.6941 48.0454 37.617L48.737 37.0799C47.5283 38.002 46.2071 38.768 44.805 39.3595L45.6315 39.0151C44.2289 39.5953 42.7576 39.9945 41.2534 40.2031L42.1733 40.0792C40.4441 40.3064 38.715 40.241 36.9859 40.241C35.1772 40.241 33.4446 41.825 33.5276 43.6845C33.5428 44.5931 33.912 45.4603 34.5573 46.1028C35.2026 46.7454 36.0734 47.113 36.9859 47.1281C38.6007 47.1821 40.2172 47.143 41.8274 47.011C44.9242 46.6973 47.916 45.7199 50.5975 44.146C55.5636 41.1535 59.3123 36.0399 60.374 30.3271C61.0034 26.9524 60.8063 23.44 60.7924 20.0344C60.7997 18.6101 60.5767 17.1939 60.1319 15.8402C59.5546 14.1666 58.6769 12.6114 57.5417 11.25C55.5805 8.8986 52.8478 7.31305 49.8264 6.77338C46.5134 6.22586 43.1381 6.65286 40.2124 8.37462C37.3586 10.0717 35.2139 12.7354 34.1709 15.8781C33.6927 17.3382 33.4807 18.8718 33.5449 20.4063C33.6294 22.2222 34.0601 24.0055 34.8141 25.6611C35.4375 27.0339 36.2951 28.2887 37.349 29.3698C38.4029 30.4754 39.6481 31.3829 41.0251 32.0489C42.9852 32.9936 45.1346 33.4845 47.3122 33.4848H77.0842C78.8929 33.4848 80.6255 31.9008 80.5425 30.0413C80.5248 29.1335 80.1547 28.2679 79.51 27.6259C78.8652 26.9839 77.9959 26.6154 77.0842 26.5978H77.0704Z" fill="#FAFAFD"/>
<path d="M20.3483 16.2672V25.7197C20.3586 26.6761 20.3043 27.6321 20.1857 28.5812L20.3102 27.6652C20.0995 29.1629 19.6986 30.6277 19.1171 32.0248L19.463 31.2018C18.8706 32.6001 18.1025 33.918 17.1771 35.1239L17.7166 34.4352C16.7892 35.6164 15.7168 36.6772 14.5246 37.5929L15.2163 37.0557C14.0075 37.9779 12.6863 38.7439 11.2842 39.3354L12.1107 38.991C10.7082 39.5712 9.23687 39.9704 7.73261 40.179L8.6525 40.0551C6.92338 40.2823 5.19426 40.2169 3.46514 40.2169C1.65648 40.2169 -0.0761028 41.8009 0.00689508 43.6604C0.0220243 44.569 0.391231 45.4362 1.03653 46.0787C1.68182 46.7213 2.55268 47.0889 3.46514 47.104C6.3424 47.104 9.19199 47.104 11.9932 46.3154C15.8498 45.2272 19.3116 43.0591 21.9667 40.0688C23.2944 38.5874 24.3987 36.9217 25.2452 35.1239C25.7237 34.1085 26.1282 33.0601 26.4555 31.9869C26.7643 30.8577 26.9852 29.7064 27.1161 28.5433C27.3754 26.553 27.2786 24.5144 27.2786 22.5137V16.2672C27.2786 14.4662 25.6878 12.741 23.8204 12.8237C22.9082 12.8396 22.0378 13.2075 21.3927 13.8499C20.7476 14.4922 20.3781 15.3589 20.3621 16.2672H20.3483Z" fill="#FAFAFD"/>
</svg>
