<svg width="157" height="36" viewBox="0 0 157 36" fill="none" xmlns="http://www.w3.org/2000/svg">
<path d="M94.7894 4.34502C95.9636 4.34502 96.9156 3.39593 96.9156 2.22518C96.9156 1.05443 95.9636 0.105347 94.7894 0.105347C93.6151 0.105347 92.6632 1.05443 92.6632 2.22518C92.6632 3.39593 93.6151 4.34502 94.7894 4.34502Z" fill="#363851"/>
<path d="M46.1834 4.34502C47.3577 4.34502 48.3096 3.39593 48.3096 2.22518C48.3096 1.05443 47.3577 0.105347 46.1834 0.105347C45.0091 0.105347 44.0572 1.05443 44.0572 2.22518C44.0572 3.39593 45.0091 4.34502 46.1834 4.34502Z" fill="#363851"/>
<path d="M106.838 36C108.012 36 108.964 35.051 108.964 33.8802C108.964 32.7095 108.012 31.7604 106.838 31.7604C105.663 31.7604 104.712 32.7095 104.712 33.8802C104.712 35.051 105.663 36 106.838 36Z" fill="#363851"/>
<path d="M112.86 36C114.034 36 114.986 35.051 114.986 33.8802C114.986 32.7095 114.034 31.7604 112.86 31.7604C111.686 31.7604 110.734 32.7095 110.734 33.8802C110.734 35.051 111.686 36 112.86 36Z" fill="#363851"/>
<path d="M66.2931 36C67.4673 36 68.4192 35.051 68.4192 33.8802C68.4192 32.7095 67.4673 31.7604 66.2931 31.7604C65.1188 31.7604 64.1669 32.7095 64.1669 33.8802C64.1669 35.051 65.1188 36 66.2931 36Z" fill="#363851"/>
<path d="M72.5556 36C73.7298 36 74.6818 35.051 74.6818 33.8802C74.6818 32.7095 73.7298 31.7604 72.5556 31.7604C71.3813 31.7604 70.4294 32.7095 70.4294 33.8802C70.4294 35.051 71.3813 36 72.5556 36Z" fill="#363851"/>
<path d="M78.5549 36C79.7292 36 80.6811 35.051 80.6811 33.8802C80.6811 32.7095 79.7292 31.7604 78.5549 31.7604C77.3806 31.7604 76.4287 32.7095 76.4287 33.8802C76.4287 35.051 77.3806 36 78.5549 36Z" fill="#363851"/>
<path d="M122.925 4.23967C124.099 4.23967 125.051 3.29059 125.051 2.11983C125.051 0.949082 124.099 0 122.925 0C121.751 0 120.799 0.949082 120.799 2.11983C120.799 3.29059 121.751 4.23967 122.925 4.23967Z" fill="#363851"/>
<path d="M132.406 4.15491C133.038 4.15491 150.242 4.15491 150.928 4.15491C151.121 4.15626 151.313 4.17006 151.504 4.19623L150.953 4.13218C151.296 4.18325 151.632 4.27696 151.952 4.4111L151.457 4.20449C151.768 4.34026 152.061 4.51299 152.331 4.71896L151.917 4.39664C152.182 4.6043 152.421 4.84292 152.629 5.10739L152.306 4.69416C152.512 4.96352 152.685 5.25618 152.822 5.56606L152.615 5.07226C152.749 5.39147 152.843 5.72596 152.895 6.06813L152.82 5.51854C152.845 5.70763 152.859 5.89805 152.862 6.08879C152.869 6.63525 153.086 7.15808 153.469 7.54953C153.86 7.93364 154.385 8.15079 154.934 8.15491C156.049 8.10532 157.006 7.24788 157.006 6.08879C157.008 5.28106 156.847 4.48117 156.534 3.73622C156.221 2.99126 155.762 2.31629 155.183 1.75104C154.604 1.18579 153.918 0.741678 153.164 0.444852C152.411 0.148027 151.605 0.00448424 150.795 0.0226743C149.658 0.0226743 133.457 -5.30211e-05 132.449 0.0226743H132.404C131.32 0.0226743 130.282 0.973087 130.331 2.08879C130.342 2.63361 130.563 3.1533 130.95 3.53862C131.336 3.92393 131.857 4.14484 132.404 4.15491H132.406Z" fill="#363851"/>
<path d="M140.685 9.59713V26.1426C140.685 27.2232 141.638 28.2583 142.757 28.2087C143.304 28.1997 143.826 27.9791 144.212 27.5935C144.599 27.208 144.82 26.6877 144.829 26.1426V9.59713C144.829 8.51655 143.876 7.48142 142.757 7.53101C142.21 7.54005 141.688 7.76063 141.302 8.14616C140.915 8.53169 140.694 9.05198 140.685 9.59713Z" fill="#363851"/>
<path d="M122.554 28.2087C124.183 28.2087 128.783 28.2438 129.445 28.1735C130.493 28.0736 131.515 27.7896 132.464 27.3347C134.033 26.5524 135.306 25.2837 136.09 23.719C136.545 22.7724 136.83 21.7535 136.932 20.7087C137.096 18.9206 136.645 17.1299 135.651 15.6322C134.595 14.0406 133.025 12.8562 131.202 12.2748C130.211 11.9587 129.175 11.9153 128.145 11.9153H122.664C121.58 11.9153 120.542 12.8657 120.592 13.9814C120.601 14.5265 120.822 15.0468 121.209 15.4324C121.595 15.8179 122.117 16.0385 122.664 16.0475C124.544 16.0475 129.161 16.0475 129.59 16.0992L129.038 16.0248C129.57 16.0969 130.091 16.2357 130.588 16.438L130.093 16.2314C130.576 16.4346 131.032 16.6969 131.451 17.0124L131.036 16.6901C131.466 17.0215 131.852 17.4062 132.184 17.8347L131.861 17.4215C132.177 17.8387 132.44 18.2933 132.644 18.7748L132.437 18.281C132.641 18.7763 132.78 19.2957 132.851 19.8264L132.777 19.2769C132.843 19.8016 132.843 20.3326 132.777 20.8574L132.851 20.3078C132.779 20.8383 132.64 21.3576 132.437 21.8533L132.644 21.3595C132.44 21.8413 132.177 22.2959 131.861 22.7128L132.184 22.2996C131.852 22.7281 131.466 23.1128 131.036 23.4442L131.451 23.1219C131.032 23.437 130.576 23.6993 130.093 23.9029L130.588 23.6963C130.089 23.9029 129.405 24.0599 129.59 24.0372C128.742 24.1426 122.84 24.0888 122.556 24.0888C121.472 24.0888 120.434 25.0392 120.484 26.155C120.492 26.7004 120.713 27.2213 121.1 27.6071C121.487 27.9928 122.009 28.2131 122.556 28.2211L122.554 28.2087Z" fill="#363851"/>
<path d="M118.787 15.9586H111.15C110.539 15.9724 109.927 15.9469 109.318 15.8822L109.87 15.9566C109.107 15.8515 108.36 15.6501 107.648 15.3574L108.143 15.564C107.434 15.265 106.765 14.8768 106.154 14.409L106.568 14.7314C106.027 14.285 105.513 13.8069 105.029 13.2995L103.085 11.3636C102.695 10.9793 102.312 10.5867 101.918 10.2086C100.453 8.80046 98.503 8.00372 96.4679 7.98135C94.8617 7.96514 93.2904 8.44906 91.9731 9.36565C91.2013 9.92012 90.524 10.5947 89.9671 11.3636C89.5088 12.0098 89.155 12.7237 88.9185 13.4793C88.6077 14.4276 88.5579 15.4235 88.5579 16.4132V19.0764C88.539 19.9275 88.5812 20.7788 88.6843 21.6239C88.9503 23.2096 89.6971 24.6761 90.8241 25.826C91.9511 26.9759 93.4044 27.754 94.9883 28.0557C95.5999 28.1571 96.2189 28.2082 96.8389 28.2086H114.433C115.517 28.2086 116.555 27.2582 116.505 26.1425C116.496 25.5974 116.275 25.0771 115.888 24.6915C115.501 24.306 114.98 24.0854 114.433 24.0764C108.458 24.0764 102.482 24.1053 96.5073 24.0764C96.2426 24.075 95.9782 24.0571 95.7157 24.0227L96.2669 24.0971C95.7587 24.0261 95.2616 23.8915 94.7873 23.6962L95.2826 23.9028C94.8208 23.707 94.3851 23.4551 93.9853 23.1528L94.3998 23.4752C93.9878 23.1574 93.6181 22.7888 93.2994 22.378L93.6226 22.7913C93.3202 22.3921 93.0676 21.9578 92.8704 21.4979L93.0776 21.9917C92.8821 21.5187 92.747 21.0231 92.6756 20.5165L92.7502 21.0661C92.6867 20.3475 92.6687 19.6257 92.6963 18.9049V16.1859C92.6895 15.8057 92.7075 15.4254 92.7502 15.0475L92.6756 15.5971C92.747 15.0938 92.8821 14.6016 93.0776 14.1322L92.8704 14.626C93.0668 14.1695 93.3195 13.7392 93.6226 13.345L93.2994 13.7582C93.6051 13.373 93.9565 13.0261 94.3459 12.7252L93.9314 13.0475C94.3274 12.7461 94.7589 12.4942 95.2163 12.2975L94.721 12.5041C95.1914 12.3082 95.6853 12.1735 96.1902 12.1033L95.639 12.1776C96.1475 12.1136 96.662 12.1136 97.1704 12.1776L96.6192 12.1033C97.1357 12.1762 97.6406 12.3151 98.1216 12.5165L97.6263 12.3099C98.0803 12.5032 98.509 12.7508 98.9029 13.0475L98.4884 12.7252C98.8969 13.0622 99.2845 13.4238 99.6489 13.8078L101.288 15.4318C102.457 16.5909 103.582 17.8057 105.018 18.6425C106.438 19.4503 108.017 19.9383 109.646 20.0723C110.108 20.1156 117.616 20.1115 118.785 20.1115C119.868 20.1115 120.907 19.1611 120.857 18.0454C120.848 17.5003 120.627 16.98 120.24 16.5944C119.853 16.2089 119.331 15.9883 118.785 15.9793L118.787 15.9586Z" fill="#363851"/>
<path d="M76.2049 10.0517C76.2049 10.9732 76.2692 11.9236 76.1531 12.8409L76.2277 12.2913C76.1564 12.8194 76.0171 13.336 75.8133 13.8285L76.0205 13.3347C75.8121 13.811 75.5448 14.2594 75.2247 14.6694L75.548 14.2562C75.2405 14.6455 74.8878 14.9971 74.4973 15.3037L74.9118 14.9814C74.4978 15.2998 74.0452 15.565 73.5648 15.7707L74.0601 15.5641C73.5661 15.7673 73.0479 15.9062 72.5183 15.9773L73.0695 15.9029C72.5469 15.9707 72.0177 15.9728 71.4946 15.9091L72.0458 15.9835C71.5162 15.9124 70.998 15.7735 70.504 15.5703L70.9993 15.7769C70.5189 15.5711 70.0664 15.3059 69.6523 14.9876L70.0668 15.3099C69.6781 15.001 69.3276 14.6473 69.0223 14.2562L69.3456 14.6694C69.0262 14.2567 68.7603 13.8055 68.554 13.3265L68.7612 13.8203C68.5574 13.3278 68.4181 12.8111 68.3467 12.2831L68.4213 12.8327C68.2929 11.8161 68.3695 10.7541 68.3695 9.73348C68.3695 8.44629 68.4255 7.14877 68.0649 5.89464C67.7643 4.85332 67.2568 3.88287 66.5726 3.04097C65.8884 2.19907 65.0414 1.50289 64.0819 0.993813C63.0209 0.44653 61.8555 0.129652 60.6626 0.0640614C60.0686 0.0444114 59.4742 0.0859539 58.8887 0.188028C58.4515 0.251196 58.0226 0.362767 57.6101 0.520673C56.5269 0.91616 55.5356 1.52701 54.6965 2.31613C53.8588 3.13815 53.2061 4.12837 52.7816 5.22109C52.3465 6.27481 52.2366 7.4091 52.2366 8.53927V14.9277C52.2366 16.5806 52.2366 18.2479 52.2366 19.907C52.2503 22.0506 53.0765 24.1098 54.5493 25.6715C56.0899 27.2749 58.2041 28.2056 60.4305 28.2603C67.7831 28.467 75.1771 28.2603 82.5317 28.2603C83.6155 28.2603 84.6537 27.3099 84.604 26.1942C84.5949 25.6491 84.3737 25.1288 83.987 24.7433C83.6003 24.3577 83.0785 24.1371 82.5317 24.1281C75.2268 24.1281 67.9198 24.1612 60.615 24.1281C60.326 24.1264 60.0374 24.1071 59.7508 24.0703L60.302 24.1446C59.7493 24.066 59.209 23.9174 58.6939 23.7025L59.1892 23.9091C58.6885 23.6925 58.2165 23.4149 57.7842 23.0827L58.1987 23.405C57.7913 23.0835 57.4227 22.7161 57.1003 22.3099L57.4236 22.7232C57.0899 22.2924 56.8115 21.8218 56.5947 21.3223L56.8019 21.8161C56.5887 21.3053 56.4424 20.7692 56.3667 20.2211L56.4413 20.7707C56.3826 20.1686 56.3632 19.5633 56.3833 18.9587V9.34918C56.3581 8.66902 56.3754 7.98795 56.4351 7.30993L56.3667 7.85125C56.4379 7.32252 56.5772 6.80516 56.7812 6.312L56.574 6.81819C56.7803 6.33919 57.0462 5.88798 57.3656 5.47522L57.0423 5.88844C57.3499 5.49917 57.7025 5.14755 58.093 4.84092L57.6785 5.16324C58.0931 4.84571 58.5455 4.58061 59.0255 4.37398L58.5302 4.58059C59.0245 4.37623 59.5436 4.23731 60.0741 4.16737L59.5229 4.24175C60.0471 4.17563 60.5777 4.17563 61.102 4.24175L60.5507 4.16737C61.081 4.2383 61.6 4.37718 62.0946 4.58059L61.5993 4.37398C62.0798 4.57966 62.5323 4.84483 62.9463 5.16324L62.5318 4.84092C62.9223 5.14755 63.275 5.49917 63.5825 5.88844L63.2592 5.47522C63.5719 5.88944 63.8322 6.3405 64.0343 6.81819L63.827 6.32439C64.031 6.81329 64.1703 7.32654 64.2415 7.85125L64.1669 7.30166C64.2189 7.851 64.2362 8.40306 64.2187 8.95456V11.2211C64.2081 11.9463 64.2504 12.6714 64.3451 13.3905C64.5218 14.5939 64.9954 15.7347 65.7232 16.7108C66.5273 17.7769 67.5157 18.7108 68.7467 19.2727C70.6092 20.1811 72.7514 20.3383 74.7273 19.7118C76.7032 19.0853 78.3607 17.7232 79.3548 15.9091C80.0047 14.702 80.345 13.3534 80.3454 11.9835V10.0579C80.3454 8.97728 79.3921 7.94216 78.2731 7.99175C77.7255 7.99818 77.2021 8.21793 76.8149 8.60402C76.4276 8.9901 76.2072 9.51189 76.2008 10.0579L76.2049 10.0517Z" fill="#363851"/>
<path d="M46.1834 15.9586H30.1417C29.4993 15.9586 28.8568 15.9586 28.2144 15.9586C27.9491 15.9569 27.6841 15.9396 27.4207 15.907L27.972 15.9814C27.4402 15.9111 26.9198 15.7722 26.424 15.5681L26.9192 15.7747C26.4367 15.5689 25.9815 15.3045 25.5639 14.9876L25.9784 15.3099C25.5679 14.9905 25.1983 14.622 24.878 14.2128L25.2013 14.626C24.8829 14.21 24.6177 13.7561 24.4117 13.2747L24.619 13.7685C24.4161 13.2736 24.2769 12.755 24.2045 12.2252L24.2791 12.7747C24.2128 12.2507 24.2128 11.7203 24.2791 11.1962L24.2045 11.7458C24.2749 11.2156 24.4143 10.6968 24.619 10.2024L24.4117 10.6962C24.6182 10.2152 24.8834 9.76132 25.2013 9.345L24.878 9.75822C25.2007 9.35452 25.5716 8.99163 25.9825 8.67764L25.5681 8.99995C25.9854 8.68254 26.4406 8.41812 26.9234 8.21276L26.4281 8.41938C26.9246 8.21715 27.4447 8.07831 27.9761 8.00615L27.4249 8.08053C27.9795 8.01234 28.5405 8.01234 29.0952 8.08053L28.5439 8.00615C29.0757 8.07637 29.5961 8.21527 30.0919 8.41938L29.5967 8.21276C30.0792 8.41859 30.5344 8.68298 30.9519 8.99995L30.5375 8.67764C30.948 8.99702 31.3175 9.36549 31.6379 9.77475L31.3146 9.36152C31.633 9.77755 31.8982 10.2315 32.1041 10.7128L31.8969 10.219C32.0997 10.714 32.239 11.2325 32.3114 11.7624L32.2368 11.2128C32.2976 11.9073 32.3149 12.6049 32.2886 13.3016V15.5991C32.2903 16.1152 32.2578 16.6308 32.1912 17.1425L32.2658 16.5929C32.138 17.4939 31.8957 18.3749 31.5446 19.2148L31.7519 18.721C31.3969 19.56 30.9366 20.3508 30.3821 21.0743L30.7053 20.6611C30.1499 21.375 29.5066 22.0164 28.7905 22.5702L29.205 22.2479C28.4807 22.8012 27.689 23.2608 26.8488 23.6157L27.3441 23.409C26.5036 23.7571 25.6219 23.9967 24.7205 24.1219L25.2717 24.0475C24.2356 24.1838 23.1994 24.1446 22.1633 24.1446C21.0795 24.1446 20.0412 25.095 20.091 26.2107C20.1 26.7558 20.3213 27.2761 20.708 27.6617C21.0947 28.0472 21.6165 28.2678 22.1633 28.2768C23.1309 28.3092 24.0996 28.2858 25.0645 28.2066C26.9202 28.0184 28.713 27.4319 30.3199 26.4876C33.2957 24.6921 35.5421 21.6239 36.1783 18.1962C36.5555 16.1714 36.4373 14.064 36.429 12.0206C36.4334 11.166 36.2998 10.3163 36.0332 9.50409C35.6873 8.49996 35.1614 7.56679 34.4811 6.74995C33.3058 5.33913 31.6683 4.3878 29.8578 4.064C27.8725 3.73549 25.8499 3.99169 24.0968 5.02475C22.3866 6.04302 21.1015 7.64119 20.4764 9.52681C20.1899 10.4029 20.0628 11.3231 20.1013 12.2438C20.152 13.3333 20.4101 14.4033 20.8619 15.3966C21.2354 16.2203 21.7494 16.9732 22.3809 17.6219C23.0124 18.2852 23.7586 18.8297 24.5837 19.2293C25.7583 19.7961 27.0463 20.0907 28.3512 20.0909H46.1917C47.2755 20.0909 48.3137 19.1404 48.264 18.0247C48.2534 17.4801 48.0316 16.9607 47.6453 16.5755C47.2589 16.1903 46.738 15.9692 46.1917 15.9586H46.1834Z" fill="#363851"/>
<path d="M12.1934 9.76033V15.4318C12.1996 16.0057 12.1671 16.5793 12.096 17.1488L12.1706 16.5992C12.0444 17.4977 11.8041 18.3767 11.4557 19.2149L11.6629 18.7211C11.3079 19.5601 10.8477 20.3508 10.2931 21.0744L10.6164 20.6612C10.0607 21.3698 9.41809 22.0063 8.70367 22.5558L9.11813 22.2335C8.39382 22.7868 7.60211 23.2464 6.76192 23.6012L7.2572 23.3946C6.41673 23.7427 5.53507 23.9823 4.63366 24.1074L5.18489 24.0331C4.14874 24.1694 3.11259 24.1302 2.07644 24.1302C0.992619 24.1302 -0.0456066 25.0806 0.00412876 26.1963C0.0131947 26.7414 0.234437 27.2617 0.621122 27.6472C1.00781 28.0328 1.52966 28.2534 2.07644 28.2624C3.80059 28.2624 5.50817 28.2624 7.18674 27.7893C9.4978 27.1363 11.5722 25.8355 13.1633 24.0413C13.9588 23.1525 14.6206 22.153 15.1278 21.0744C15.4146 20.4651 15.6569 19.8361 15.8531 19.1922C16.0382 18.5146 16.1705 17.8239 16.2489 17.126C16.4044 15.9318 16.3463 14.7087 16.3463 13.5083V9.76033C16.3463 8.67975 15.3931 7.64463 14.274 7.69422C13.7274 7.70377 13.2059 7.92452 12.8193 8.30994C12.4327 8.69536 12.2113 9.21535 12.2017 9.76033H12.1934Z" fill="#363851"/>
</svg>
