<svg width="52" height="52" viewBox="0 0 52 52" fill="none" xmlns="http://www.w3.org/2000/svg">
<path d="M26.144 41.9799C23.0005 41.9819 19.9265 41.0542 17.3089 39.3135C14.6913 37.5727 12.6469 35.0967 11.433 32.1969C10.219 29.2972 9.88977 26.1031 10.4866 23.0167C11.0834 19.9302 12.5796 17.0892 14.7871 14.851C16.9945 12.6128 19.8145 11.0775 22.8924 10.4381C25.9702 9.79873 29.1684 10.0839 32.0846 11.2577C35.0008 12.4315 37.5047 14.4416 39.2813 17.035C41.058 19.6284 42.028 22.6894 42.0694 25.8327C42.1058 27.9446 41.7204 30.0425 40.9358 32.0035C40.1511 33.9645 38.983 35.7492 37.4998 37.253C36.0167 38.7569 34.2483 39.9495 32.2984 40.7612C30.3484 41.5729 28.2561 41.9872 26.144 41.9799ZM40.7471 25.9143C40.7539 22.9391 39.8247 20.0371 38.0909 17.6194C37.7329 17.8219 37.3802 18.0156 37.0339 18.2057C36.2252 18.6497 35.4519 19.0743 34.7299 19.5475C34.5925 19.6631 34.4836 19.809 34.4119 19.9737C34.3401 20.1384 34.3074 20.3175 34.3164 20.4969C34.5144 22.0522 34.7707 23.6075 35.0794 25.157C35.1435 25.4483 35.5221 25.8793 35.7668 25.891C36.9284 25.9331 38.0931 25.9265 39.3136 25.9196C39.7822 25.917 40.2591 25.9143 40.7471 25.9143ZM16.7542 25.8444C16.8681 25.2466 16.9825 24.6559 17.0959 24.07C17.3539 22.7378 17.607 21.431 17.8377 20.1241C17.8537 19.9845 17.8374 19.8429 17.7899 19.7106C17.7425 19.5783 17.6651 19.4586 17.5639 19.3611C16.9854 18.9829 16.3943 18.6352 15.7857 18.2773C15.2974 17.9901 14.7978 17.6962 14.2844 17.3747C12.4647 19.8221 11.4896 22.7946 11.506 25.8444H16.7542ZM14.797 35.2927L18.1813 33.3005C17.7212 31.2211 17.2844 29.2699 16.8475 27.3186L16.8474 27.3181H11.506C11.7626 30.2501 12.9111 33.0331 14.797 35.2927ZM40.6888 27.1842C40.2732 27.1842 39.8635 27.1821 39.4583 27.1801C38.1939 27.1737 36.9741 27.1676 35.761 27.2249C35.4872 27.2249 35.0969 27.7201 35.0095 28.0521C34.6426 29.4385 34.3338 30.8481 34.0892 32.2636C34.0616 32.4558 34.0782 32.6516 34.1378 32.8364C34.1974 33.0211 34.2983 33.1898 34.4329 33.3296C35.2242 33.8253 36.0617 34.2572 36.9203 34.6999C37.1615 34.8242 37.4043 34.9494 37.6482 35.0772C39.4373 32.8146 40.4976 30.0623 40.6888 27.1842ZM25.3809 21.5921L19.0609 20.2348C18.975 20.7615 18.891 21.285 18.8071 21.8083C18.5948 23.1313 18.3826 24.4537 18.1405 25.8269H25.3809V21.5921ZM33.0465 20.5202C32.5417 20.5997 32.0548 20.6749 31.5817 20.7481C30.1114 20.9754 28.7738 21.1822 27.443 21.429C27.2958 21.4719 27.1609 21.5492 27.0495 21.6546C26.9381 21.7599 26.8533 21.8902 26.8022 22.0348C26.7549 22.955 26.7616 23.8752 26.7683 24.8048C26.7707 25.1345 26.7731 25.4653 26.7731 25.7978H33.9203C33.8079 25.1152 33.6994 24.4573 33.5931 23.8125C33.4073 22.6856 33.2281 21.599 33.0465 20.4911V20.5202ZM19.3813 32.7529L25.3635 31.4947V27.3181H18.1988L19.3813 32.7529ZM26.8022 31.4947L32.7436 32.4792C33.1106 30.7316 33.4601 29.0424 33.8213 27.2948H26.8022V31.4947ZM25.3285 20.2523V11.6894C22.8405 13.5931 20.8978 16.1185 19.6958 19.0115L25.3285 20.2523ZM32.464 19.1921C31.2702 16.2814 29.339 13.7318 26.8605 11.7943V20.2639L32.464 19.1921ZM20.1676 33.883C21.2452 36.5567 24.0179 39.7489 25.4101 40.0343V32.8228L20.1676 33.883ZM32.1612 34.1859L31.8699 33.6442L26.8663 32.8461V40.0401L27.274 40.279C28.9011 38.2479 30.5302 36.2169 32.1612 34.1859ZM37.2521 16.5475C35.203 14.0992 32.3904 12.4108 29.2662 11.7535L33.9261 18.4931L37.2521 16.5475ZM15.1524 16.3495L18.2745 18.2776L22.7772 11.8176C19.8253 12.4964 17.1594 14.0809 15.1524 16.3495ZM29.2079 40.3139C32.0912 39.7083 34.7208 38.2369 36.7454 36.0965L33.5184 34.349L29.2079 40.3139ZM15.665 36.3004C17.6326 38.2848 20.1266 39.6652 22.8529 40.279L18.6473 34.5587L15.665 36.3004Z" fill="#1B1B1B"/>
<path d="M26.144 41.9799C23.0005 41.9819 19.9265 41.0542 17.3089 39.3135C14.6913 37.5727 12.6469 35.0967 11.433 32.1969C10.219 29.2972 9.88977 26.1031 10.4866 23.0167C11.0834 19.9302 12.5796 17.0892 14.7871 14.851C16.9945 12.6128 19.8145 11.0775 22.8924 10.4381C25.9702 9.79873 29.1684 10.0839 32.0846 11.2577C35.0008 12.4315 37.5047 14.4416 39.2813 17.035C41.058 19.6284 42.028 22.6894 42.0694 25.8327C42.1058 27.9446 41.7204 30.0425 40.9358 32.0035C40.1511 33.9645 38.983 35.7492 37.4998 37.253C36.0167 38.7569 34.2483 39.9495 32.2984 40.7612C30.3484 41.5729 28.2561 41.9872 26.144 41.9799ZM40.7471 25.9143C40.7539 22.9391 39.8247 20.0371 38.0909 17.6194C37.7329 17.8219 37.3802 18.0156 37.0339 18.2057C36.2252 18.6497 35.4519 19.0743 34.7299 19.5475C34.5925 19.6631 34.4836 19.809 34.4119 19.9737C34.3401 20.1384 34.3074 20.3175 34.3164 20.4969C34.5144 22.0522 34.7707 23.6075 35.0794 25.157C35.1435 25.4483 35.5221 25.8793 35.7668 25.891C36.9284 25.9331 38.0931 25.9265 39.3136 25.9196C39.7822 25.917 40.2591 25.9143 40.7471 25.9143ZM16.7542 25.8444C16.8681 25.2466 16.9825 24.6559 17.0959 24.07C17.3539 22.7378 17.607 21.431 17.8377 20.1241C17.8537 19.9845 17.8374 19.8429 17.7899 19.7106C17.7425 19.5783 17.6651 19.4586 17.5639 19.3611C16.9854 18.9829 16.3943 18.6352 15.7857 18.2773C15.2974 17.9901 14.7978 17.6962 14.2844 17.3747C12.4647 19.8221 11.4896 22.7946 11.506 25.8444H16.7542ZM14.797 35.2927L18.1813 33.3005C17.7212 31.2211 17.2844 29.2699 16.8475 27.3186L16.8474 27.3181H11.506C11.7626 30.2501 12.9111 33.0331 14.797 35.2927ZM40.6888 27.1842C40.2732 27.1842 39.8635 27.1821 39.4583 27.1801C38.1939 27.1737 36.9741 27.1676 35.761 27.2249C35.4872 27.2249 35.0969 27.7201 35.0095 28.0521C34.6426 29.4385 34.3338 30.8481 34.0892 32.2636C34.0616 32.4558 34.0782 32.6516 34.1378 32.8364C34.1974 33.0211 34.2983 33.1898 34.4329 33.3296C35.2242 33.8253 36.0617 34.2572 36.9203 34.6999C37.1615 34.8242 37.4043 34.9494 37.6482 35.0772C39.4373 32.8146 40.4976 30.0623 40.6888 27.1842ZM25.3809 21.5921L19.0609 20.2348C18.975 20.7615 18.891 21.285 18.8071 21.8083C18.5948 23.1313 18.3826 24.4537 18.1405 25.8269H25.3809V21.5921ZM33.0465 20.5202C32.5417 20.5997 32.0548 20.6749 31.5817 20.7481C30.1114 20.9754 28.7738 21.1822 27.443 21.429C27.2958 21.4719 27.1609 21.5492 27.0495 21.6546C26.9381 21.7599 26.8533 21.8902 26.8022 22.0348C26.7549 22.955 26.7616 23.8752 26.7683 24.8048C26.7707 25.1345 26.7731 25.4653 26.7731 25.7978H33.9203C33.8079 25.1152 33.6994 24.4573 33.5931 23.8125C33.4073 22.6856 33.2281 21.599 33.0465 20.4911V20.5202ZM19.3813 32.7529L25.3635 31.4947V27.3181H18.1988L19.3813 32.7529ZM26.8022 31.4947L32.7436 32.4792C33.1106 30.7316 33.4601 29.0424 33.8213 27.2948H26.8022V31.4947ZM25.3285 20.2523V11.6894C22.8405 13.5931 20.8978 16.1185 19.6958 19.0115L25.3285 20.2523ZM32.464 19.1921C31.2702 16.2814 29.339 13.7318 26.8605 11.7943V20.2639L32.464 19.1921ZM20.1676 33.883C21.2452 36.5567 24.0179 39.7489 25.4101 40.0343V32.8228L20.1676 33.883ZM32.1612 34.1859L31.8699 33.6442L26.8663 32.8461V40.0401L27.274 40.279C28.9011 38.2479 30.5302 36.2169 32.1612 34.1859ZM37.2521 16.5475C35.203 14.0992 32.3904 12.4108 29.2662 11.7535L33.9261 18.4931L37.2521 16.5475ZM15.1524 16.3495L18.2745 18.2776L22.7772 11.8176C19.8253 12.4964 17.1594 14.0809 15.1524 16.3495ZM29.2079 40.3139C32.0912 39.7083 34.7208 38.2369 36.7454 36.0965L33.5184 34.349L29.2079 40.3139ZM15.665 36.3004C17.6326 38.2848 20.1266 39.6652 22.8529 40.279L18.6473 34.5587L15.665 36.3004Z" stroke="black"/>
<circle cx="26.1342" cy="26.0425" r="24.8227" stroke="#1B1B1B" stroke-width="1.35469"/>
</svg>
