<svg width="33" height="34" viewBox="0 0 33 34" fill="none" xmlns="http://www.w3.org/2000/svg">
<path d="M31.9735 17.0019C31.9735 19.8072 32.0397 22.617 31.9735 25.4223C31.9094 27.3925 31.1115 29.2627 29.7439 30.6478C28.3764 32.0329 26.5432 32.8276 24.6217 32.8682C19.1874 33.0495 13.7546 33.0495 8.32327 32.8682C6.40352 32.8021 4.5794 31.9927 3.2179 30.6028C1.85639 29.213 1.05851 27.3458 0.984769 25.3769C0.821299 19.848 0.874317 14.319 0.984769 8.79005C1.02153 6.74523 1.8349 4.79588 3.25173 3.35694C4.66855 1.918 6.57695 1.10312 8.57068 1.08576C13.8724 0.964904 19.1742 0.964904 24.4759 1.08576C26.4218 1.10447 28.2855 1.8931 29.6783 3.28715C31.0711 4.6812 31.8854 6.57301 31.9514 8.56798C32.0397 11.3823 31.9735 14.1921 31.9735 17.0019ZM16.6028 2.87134C13.9917 2.87134 11.3762 2.80336 8.76949 2.89853C5.20407 3.02542 2.80504 5.42735 2.73876 9.08462C2.63715 14.3961 2.6504 19.7075 2.73876 25.0189C2.78736 28.1505 4.86829 30.7427 7.71798 30.9467C10.6568 31.199 13.6086 31.252 16.5542 31.1053C19.0284 31.0826 21.5069 31.0555 23.9855 31.0419C27.7232 31.0192 30.1178 28.5448 30.1709 24.7243C30.2504 19.6395 30.2504 14.5547 30.1709 9.46984C30.1178 5.49986 27.9176 3.05262 24.0606 2.92119C21.5599 2.83508 19.0814 2.8804 16.6028 2.87134Z" fill="#454143"/>
<path d="M16.5499 31.1058C13.6043 31.2525 10.6524 31.1995 7.71364 30.9471C4.86395 30.7432 2.78301 28.1509 2.73441 25.0194C2.64605 19.7079 2.6328 14.3965 2.73441 9.08508C2.80069 5.42781 5.19973 3.02588 8.76515 2.89899C11.3718 2.80382 13.9874 2.87633 16.5941 2.8718C16.5941 4.59393 16.5941 6.31607 16.5941 8.0382C16.382 8.0382 16.1522 8.08352 15.9578 8.09712C14.667 8.17304 13.4089 8.54346 12.2753 9.18139C11.1417 9.81931 10.1612 10.7087 9.4052 11.7846C8.64919 12.8606 8.13677 14.096 7.90528 15.4008C7.67379 16.7057 7.72907 18.0471 8.06709 19.3273C9.08325 23.1794 12.0036 25.4771 16.5852 26.0255L16.5499 31.1058Z" fill="#8C8CFF"/>
<path d="M16.6027 8.03824C16.6027 6.31611 16.6027 4.59397 16.6027 2.87183C19.0857 2.87183 21.5643 2.83558 24.0428 2.92169C27.9219 3.05311 30.1221 5.50036 30.1884 9.47033C30.2709 14.5552 30.2709 19.64 30.1884 24.7248C30.1266 28.5452 27.7319 31.0197 24.003 31.0423C21.5245 31.0423 19.0459 31.0831 16.5718 31.1058C16.5718 29.4109 16.5939 27.7204 16.6027 26.0255C18.7146 25.7898 20.7027 25.2143 22.2932 23.6689C25.0192 21.0132 25.9559 17.7774 24.7276 14.1518C23.4066 10.268 20.5702 8.30563 16.6027 8.03824ZM25.4389 10.8888C25.8482 10.9168 26.2587 10.8583 26.6449 10.7169C27.0312 10.5754 27.3851 10.3542 27.6846 10.0667C27.9841 9.7793 28.2229 9.43184 28.3861 9.04588C28.5493 8.65992 28.6336 8.24369 28.6336 7.82297C28.6336 7.40226 28.5493 6.98603 28.3861 6.60007C28.2229 6.21411 27.9841 5.86665 27.6846 5.57922C27.3851 5.29179 27.0312 5.07051 26.6449 4.9291C26.2587 4.78768 25.8482 4.72915 25.4389 4.75712C25.0326 4.74077 24.6272 4.8075 24.2462 4.95341C23.8653 5.09933 23.5164 5.32152 23.22 5.60704C22.9235 5.89257 22.6854 6.23573 22.5195 6.61655C22.3535 6.99736 22.2631 7.40824 22.2535 7.82524C22.2601 8.2426 22.3484 8.65433 22.5131 9.03604C22.6778 9.41774 22.9155 9.76164 23.2121 10.0474C23.5088 10.3331 23.8584 10.5548 24.2401 10.6993C24.6219 10.8439 25.028 10.9083 25.4345 10.8888H25.4389Z" fill="#EEEEED"/>
<path d="M16.6028 8.03809C20.5791 8.30547 23.4067 10.2678 24.71 14.1381C25.9383 17.7863 25.0016 21.013 22.2757 23.6551C20.6851 25.2005 18.697 25.7761 16.5851 26.0117C12.0035 25.4634 9.07431 23.1657 8.06698 19.3135C7.72886 18.0327 7.67378 16.6905 7.90577 15.385C8.13776 14.0796 8.65096 12.8437 9.40792 11.7676C10.1649 10.6914 11.1465 9.80227 12.2812 9.16489C13.4159 8.52752 14.675 8.15804 15.9666 8.08341C16.1786 8.08341 16.3907 8.05621 16.6028 8.03809ZM16.5498 24.0358C17.455 24.0401 18.3519 23.8597 19.1886 23.5053C20.0252 23.1508 20.7848 22.6293 21.4232 21.971C22.0617 21.3128 22.5662 20.5309 22.9074 19.6709C23.2487 18.8109 23.4199 17.8899 23.4111 16.9615C23.389 13.1003 20.2124 9.8418 16.6028 9.97775C15.7094 9.93896 14.8174 10.0831 13.9789 10.4017C13.1404 10.7204 12.3722 11.2071 11.719 11.8336C11.0659 12.4601 10.541 13.2138 10.1749 14.0506C9.80882 14.8875 9.6089 15.7907 9.58682 16.7077C9.54264 20.9677 12.5735 24.1582 16.5498 24.0358Z" fill="#454143"/>
<path d="M25.4347 10.8885C25.0282 10.908 24.6221 10.8435 24.2403 10.699C23.8586 10.5544 23.509 10.3327 23.2123 10.047C22.9157 9.76132 22.6779 9.41742 22.5133 9.03571C22.3486 8.65401 22.2603 8.24227 22.2537 7.82492C22.2633 7.40791 22.3537 6.99704 22.5196 6.61622C22.6856 6.2354 22.9237 5.89224 23.2201 5.60672C23.5166 5.32119 23.8654 5.09901 24.2464 4.95309C24.6273 4.80718 25.0328 4.74045 25.4391 4.7568C25.8484 4.72883 26.2588 4.78736 26.6451 4.92878C27.0314 5.07019 27.3853 5.29147 27.6848 5.5789C27.9843 5.86633 28.2231 6.21379 28.3863 6.59975C28.5495 6.98571 28.6338 7.40194 28.6338 7.82265C28.6338 8.24337 28.5495 8.6596 28.3863 9.04556C28.2231 9.43152 27.9843 9.77898 27.6848 10.0664C27.3853 10.3538 27.0314 10.5751 26.6451 10.7165C26.2588 10.8579 25.8484 10.9165 25.4391 10.8885H25.4347ZM26.6011 7.88383C26.6182 7.71366 26.5983 7.54171 26.5427 7.38039C26.4872 7.21908 26.3974 7.07243 26.2799 6.95103C26.1624 6.82962 26.0201 6.7365 25.8632 6.67837C25.7064 6.62024 25.5389 6.59856 25.3729 6.61489C25.2203 6.60512 25.0676 6.62928 24.925 6.68572C24.7824 6.74215 24.6534 6.82953 24.5468 6.94187C24.4403 7.05421 24.3586 7.18885 24.3075 7.33657C24.2564 7.48429 24.237 7.6416 24.2506 7.79773C24.2371 7.96429 24.2598 8.13185 24.3171 8.28831C24.3744 8.44477 24.4649 8.58622 24.582 8.70244C24.6991 8.81866 24.8399 8.90674 24.9943 8.96033C25.1486 9.01391 25.3126 9.03166 25.4745 9.01229C25.622 9.01915 25.7692 8.99486 25.9072 8.94094C26.0451 8.88701 26.1708 8.80459 26.2765 8.69879C26.3821 8.59299 26.4654 8.46607 26.5213 8.32588C26.5771 8.18569 26.6043 8.03524 26.6011 7.88383Z" fill="#454143"/>
<path d="M16.5499 24.0359C12.5735 24.1583 9.54272 20.9678 9.5869 16.7078C9.60899 15.7908 9.8089 14.8876 10.175 14.0507C10.5411 13.2139 11.066 12.4602 11.7191 11.8337C12.3722 11.2072 13.1405 10.7205 13.979 10.4018C14.8175 10.0832 15.7095 9.93906 16.6029 9.97786L16.5499 24.0359Z" fill="#8C8CFF"/>
<path d="M16.5498 24.0355L16.6028 9.98653C20.2124 9.85057 23.3891 13.109 23.4111 16.9702C23.4188 17.898 23.2467 18.818 22.9049 19.6769C22.5631 20.5359 22.0584 21.3166 21.4201 21.9739C20.7818 22.6312 20.0226 23.1519 19.1865 23.5058C18.3505 23.8597 17.4542 24.0398 16.5498 24.0355Z" fill="#EEEEED"/>
<path d="M26.6011 7.88432C26.6031 8.03496 26.575 8.18443 26.5186 8.32355C26.4622 8.46266 26.3787 8.58849 26.2732 8.69331C26.1677 8.79813 26.0425 8.87974 25.9051 8.93311C25.7678 8.98649 25.6212 9.01051 25.4745 9.0037C25.3134 9.02287 25.1503 9.00529 24.9966 8.95222C24.843 8.89915 24.7026 8.81189 24.5857 8.69671C24.4688 8.58152 24.3781 8.44124 24.3202 8.28591C24.2623 8.13058 24.2385 7.96404 24.2507 7.79821C24.2368 7.64087 24.2564 7.4823 24.3083 7.33355C24.3602 7.18479 24.4431 7.04942 24.5511 6.93685C24.6592 6.82427 24.7899 6.7372 24.9341 6.68168C25.0783 6.62616 25.2325 6.60354 25.3861 6.61537C25.5511 6.60118 25.7171 6.62445 25.8723 6.68353C26.0275 6.74261 26.1681 6.83605 26.2841 6.9572C26.4001 7.07836 26.4886 7.22424 26.5434 7.38448C26.5982 7.54472 26.6179 7.71538 26.6011 7.88432Z" fill="#DCDDDE"/>
</svg>
