<svg width="51" height="51" viewBox="0 0 51 51" fill="none" xmlns="http://www.w3.org/2000/svg">
<path d="M25.9236 43.1154C24.57 41.9454 23.3057 40.6552 22.0657 39.3677C19.5999 36.8537 17.3695 34.1148 15.403 31.1862C14.3973 29.6839 13.5643 28.0707 12.9204 26.3779C12.2939 24.6185 12.1536 22.72 12.5144 20.8862C13.0137 17.854 14.501 15.0767 16.7405 12.9944C18.6887 11.1081 21.162 9.86899 23.8282 9.44357C28.7365 8.66451 32.9437 10.1133 36.3603 13.7462C38.4151 15.933 39.5549 18.5763 39.9529 21.5696C40.2561 23.8411 39.758 25.9432 38.7942 27.9551C37.5082 30.6504 35.7728 33.045 33.8912 35.3357C31.7143 37.9688 29.3626 40.4493 26.8522 42.76C26.7223 42.883 26.5815 42.9951 26.4434 43.1126L25.9236 43.1154Z" fill="#010101"/>
<path d="M26.172 10.7235C29.0549 10.7331 31.8451 11.7523 34.0668 13.6072C36.2885 15.4621 37.804 18.0378 38.3549 20.895C38.826 23.3169 38.3874 25.542 37.272 27.7288C36.0935 29.9559 34.687 32.0522 33.0757 33.9832C30.998 36.5255 28.7598 38.9297 26.3751 41.1806C26.256 41.2954 26.1829 41.3774 26.0123 41.2162C22.953 38.2803 20.0562 35.2024 17.5655 31.7472C16.3103 30.0719 15.2629 28.2478 14.4467 26.3156C13.4152 23.7679 13.6724 21.2339 14.6227 18.7628C16.1496 14.8484 18.9679 12.3144 22.9774 11.1526C24.0167 10.8572 25.0924 10.7127 26.172 10.7235Z" fill="white"/>
<path d="M33.4737 23.2403C33.4736 24.7041 33.0424 26.1348 32.2349 27.3505C31.4274 28.5662 30.2802 29.5121 28.939 30.0678C27.5978 30.6234 26.1232 30.7639 24.7027 30.4713C23.2822 30.1787 21.98 29.4662 20.9616 28.4244C19.9432 27.3826 19.2546 26.0586 18.9833 24.6207C18.7121 23.1827 18.8704 21.6958 19.4382 20.349C20.0061 19.0021 20.9577 17.8562 22.1722 17.0568C23.3867 16.2575 24.8091 15.8408 26.2587 15.8598C28.1809 15.8849 30.0159 16.6736 31.3663 18.055C32.7168 19.4364 33.4739 21.2993 33.4737 23.2403Z" fill="#010101"/>
<path d="M26.1883 29.1011C25.0377 29.1005 23.9132 28.7555 22.9567 28.1097C22.0003 27.4639 21.255 26.5463 20.8151 25.4728C20.3752 24.3994 20.2603 23.2183 20.4851 22.079C20.7099 20.9396 21.2643 19.8932 22.078 19.0719C22.8918 18.2506 23.9285 17.6914 25.057 17.465C26.1855 17.2385 27.3552 17.355 28.4181 17.7997C29.481 18.2444 30.3895 18.9974 31.0287 19.9633C31.6679 20.9293 32.009 22.065 32.009 23.2267C32.0054 24.784 31.391 26.2765 30.3001 27.3775C29.2092 28.4784 27.7307 29.0982 26.1883 29.1011Z" fill="white"/>
<circle cx="26.1775" cy="24.6377" r="23.9832" stroke="#1B1B1B" stroke-width="1.30888"/>
</svg>
