<svg width="192" height="213" viewBox="0 0 192 213" fill="none" xmlns="http://www.w3.org/2000/svg">
<g clip-path="url(#clip0_99_92)">
<path d="M181.562 69.7107C170.669 21.7782 128.857 0.198242 92.1298 0.198242C92.1298 0.198242 92.1298 0.198242 92.026 0.198242C55.4023 0.198242 13.4873 21.6745 2.59352 69.607C-9.54523 123.142 23.2398 168.481 52.9123 197.012C63.9098 207.594 78.0198 212.886 92.1298 212.886C106.24 212.886 120.35 207.594 131.244 197.012C160.916 168.481 193.701 123.246 181.562 69.7107ZM92.1298 121.689C74.0773 121.689 59.4485 107.061 59.4485 89.0082C59.4485 70.9557 74.0773 56.327 92.1298 56.327C110.182 56.327 124.811 70.9557 124.811 89.0082C124.811 107.061 110.182 121.689 92.1298 121.689Z" fill="url(#paint0_linear_99_92)"/>
<path d="M189.562 69.7107C178.669 21.7782 136.857 0.198242 100.13 0.198242C100.13 0.198242 100.13 0.198242 100.026 0.198242C63.4023 0.198242 21.4873 21.6745 10.5935 69.607C-1.54523 123.142 31.2398 168.481 60.9123 197.012C71.9098 207.594 86.0198 212.886 100.13 212.886C114.24 212.886 128.35 207.594 139.244 197.012C168.916 168.481 201.701 123.246 189.562 69.7107ZM100.13 121.689C82.0773 121.689 67.4485 107.061 67.4485 89.0082C67.4485 70.9557 82.0773 56.327 100.13 56.327C118.182 56.327 132.811 70.9557 132.811 89.0082C132.811 107.061 118.182 121.689 100.13 121.689Z" fill="url(#paint1_linear_99_92)"/>
</g>
<defs>
<linearGradient id="paint0_linear_99_92" x1="-5.5" y1="17.1982" x2="92.0779" y2="212.886" gradientUnits="userSpaceOnUse">
<stop stop-color="#1A1A18"/>
<stop offset="1" stop-color="#FE74C9"/>
</linearGradient>
<linearGradient id="paint1_linear_99_92" x1="55.5" y1="0.198243" x2="100.078" y2="212.886" gradientUnits="userSpaceOnUse">
<stop stop-color="#F235AA"/>
<stop offset="1" stop-color="#FE74C9"/>
</linearGradient>
<clipPath id="clip0_99_92">
<rect width="192" height="213" fill="white"/>
</clipPath>
</defs>
</svg>
