<svg width="194" height="45" viewBox="0 0 194 45" fill="none" xmlns="http://www.w3.org/2000/svg">
<g clip-path="url(#clip0_1066_6586)">
<path d="M117.123 5.37227C118.574 5.37227 119.75 4.19897 119.75 2.75163C119.75 1.30428 118.574 0.130981 117.123 0.130981C115.672 0.130981 114.496 1.30428 114.496 2.75163C114.496 4.19897 115.672 5.37227 117.123 5.37227Z" fill="#FCFCFC"/>
<path d="M57.0646 5.37227C58.5156 5.37227 59.6918 4.19897 59.6918 2.75163C59.6918 1.30428 58.5156 0.130981 57.0646 0.130981C55.6136 0.130981 54.4374 1.30428 54.4374 2.75163C54.4374 4.19897 55.6136 5.37227 57.0646 5.37227Z" fill="#FCFCFC"/>
<path d="M132.012 44.5051C133.463 44.5051 134.639 43.3318 134.639 41.8844C134.639 40.4371 133.463 39.2638 132.012 39.2638C130.561 39.2638 129.385 40.4371 129.385 41.8844C129.385 43.3318 130.561 44.5051 132.012 44.5051Z" fill="#FCFCFC"/>
<path d="M139.453 44.5051C140.904 44.5051 142.08 43.3318 142.08 41.8844C142.08 40.4371 140.904 39.2638 139.453 39.2638C138.002 39.2638 136.826 40.4371 136.826 41.8844C136.826 43.3318 138.002 44.5051 139.453 44.5051Z" fill="#FCFCFC"/>
<path d="M81.9122 44.5052C83.3632 44.5052 84.5395 43.3319 84.5395 41.8846C84.5395 40.4372 83.3632 39.2639 81.9122 39.2639C80.4613 39.2639 79.285 40.4372 79.285 41.8846C79.285 43.3319 80.4613 44.5052 81.9122 44.5052Z" fill="#FCFCFC"/>
<path d="M89.6496 44.5051C91.1005 44.5051 92.2768 43.3318 92.2768 41.8844C92.2768 40.4371 91.1005 39.2638 89.6496 39.2638C88.1986 39.2638 87.0223 40.4371 87.0223 41.8844C87.0223 43.3318 88.1986 44.5051 89.6496 44.5051Z" fill="#FCFCFC"/>
<path d="M97.0646 44.5051C98.5156 44.5051 99.6918 43.3318 99.6918 41.8844C99.6918 40.4371 98.5156 39.2638 97.0646 39.2638C95.6136 39.2638 94.4374 40.4371 94.4374 41.8844C94.4374 43.3318 95.6136 44.5051 97.0646 44.5051Z" fill="#FCFCFC"/>
<path d="M151.89 5.2419C153.341 5.2419 154.517 4.0686 154.517 2.62126C154.517 1.17391 153.341 0.000610352 151.89 0.000610352C150.439 0.000610352 149.263 1.17391 149.263 2.62126C149.263 4.0686 150.439 5.2419 151.89 5.2419Z" fill="#FCFCFC"/>
<path d="M163.604 5.13719C164.385 5.13719 185.644 5.13719 186.491 5.13719C186.729 5.13887 186.967 5.15593 187.203 5.18828L186.522 5.1091C186.946 5.17224 187.361 5.28808 187.756 5.45392L187.144 5.1985C187.529 5.36633 187.892 5.57988 188.225 5.8345L187.713 5.43604C188.04 5.69276 188.336 5.98775 188.593 6.3147L188.194 5.80385C188.448 6.13685 188.662 6.49865 188.832 6.88174L188.576 6.27127C188.741 6.66589 188.857 7.0794 188.921 7.50242L188.829 6.82299C188.86 7.05675 188.877 7.29216 188.88 7.52796C188.889 8.20352 189.158 8.84987 189.631 9.3338C190.113 9.80865 190.763 10.0771 191.441 10.0822C192.819 10.0209 194.002 8.96089 194.002 7.52796C194.004 6.5294 193.805 5.54054 193.418 4.61959C193.031 3.69864 192.464 2.86421 191.748 2.16541C191.033 1.46662 190.185 0.917591 189.254 0.55064C188.323 0.18369 187.328 0.00623532 186.327 0.0287227C184.922 0.0287227 164.903 0.000626133 163.658 0.0287227H163.602C162.262 0.0287227 160.98 1.20367 161.041 2.58296C161.054 3.25649 161.327 3.89896 161.805 4.37531C162.282 4.85165 162.926 5.12475 163.602 5.13719H163.604Z" fill="#FCFCFC"/>
<path d="M173.834 11.8653V32.3196C173.834 33.6555 175.012 34.9352 176.395 34.8739C177.07 34.8627 177.715 34.59 178.193 34.1134C178.671 33.6368 178.944 32.9936 178.955 32.3196V11.8653C178.955 10.5294 177.777 9.24978 176.395 9.31108C175.719 9.32225 175.074 9.59495 174.596 10.0716C174.119 10.5482 173.845 11.1914 173.834 11.8653Z" fill="#FCFCFC"/>
<path d="M151.431 34.8743C153.444 34.8743 159.128 34.9177 159.945 34.8309C161.24 34.7072 162.504 34.3562 163.676 33.7938C165.615 32.8267 167.188 31.2582 168.157 29.3239C168.719 28.1537 169.071 26.894 169.197 25.6024C169.4 23.3918 168.842 21.1782 167.614 19.3266C166.309 17.359 164.37 15.8947 162.117 15.176C160.893 14.7852 159.612 14.7316 158.34 14.7316H151.567C150.228 14.7316 148.945 15.9065 149.006 17.2858C149.017 17.9597 149.291 18.6029 149.769 19.0796C150.246 19.5562 150.891 19.8289 151.567 19.84C153.889 19.84 159.594 19.84 160.125 19.9039L159.443 19.8119C160.101 19.901 160.744 20.0727 161.359 20.3228L160.747 20.0674C161.344 20.3185 161.907 20.6429 162.424 21.0329L161.912 20.6344C162.443 21.0442 162.92 21.5197 163.33 22.0495L162.931 21.5386C163.321 22.0544 163.647 22.6163 163.899 23.2116L163.643 22.6012C163.895 23.2136 164.067 23.8557 164.155 24.5117L164.063 23.8323C164.145 24.4811 164.145 25.1375 164.063 25.7863L164.155 25.1069C164.066 25.7627 163.894 26.4047 163.643 27.0174L163.899 26.407C163.647 27.0026 163.322 27.5646 162.931 28.08L163.33 27.5692C162.92 28.099 162.443 28.5745 161.912 28.9842L162.424 28.5857C161.907 28.9752 161.344 29.2995 160.747 29.5512L161.359 29.2958C160.742 29.5512 159.897 29.7454 160.125 29.7173C159.077 29.8475 151.785 29.7811 151.434 29.7811C150.095 29.7811 148.812 30.9561 148.873 32.3354C148.883 33.0097 149.156 33.6537 149.634 34.1305C150.112 34.6074 150.758 34.8797 151.434 34.8896L151.431 34.8743Z" fill="#FCFCFC"/>
<path d="M146.775 19.7302H137.339C136.584 19.7472 135.827 19.7157 135.076 19.6357L135.757 19.7276C134.814 19.5977 133.892 19.3488 133.012 18.9869L133.624 19.2423C132.747 18.8726 131.921 18.3928 131.166 17.8145L131.678 18.213C131.009 17.6612 130.374 17.0701 129.775 16.4429L127.373 14.0496C126.892 13.5745 126.418 13.0892 125.932 12.6218C124.121 10.8809 121.712 9.89594 119.197 9.86829C117.212 9.84824 115.271 10.4465 113.643 11.5796C112.69 12.2651 111.853 13.099 111.165 14.0496C110.598 14.8485 110.161 15.7311 109.869 16.6651C109.485 17.8375 109.423 19.0686 109.423 20.2921V23.5845C109.4 24.6367 109.452 25.6892 109.579 26.7339C109.908 28.6943 110.831 30.5072 112.223 31.9287C113.616 33.3503 115.412 34.3122 117.369 34.6852C118.125 34.8105 118.889 34.8737 119.656 34.8743H141.395C142.735 34.8743 144.017 33.6993 143.956 32.32C143.945 31.6461 143.671 31.0029 143.194 30.5263C142.716 30.0497 142.071 29.777 141.395 29.7658C134.013 29.7658 126.628 29.8015 119.246 29.7658C118.919 29.7641 118.592 29.7419 118.268 29.6994L118.949 29.7913C118.321 29.7037 117.707 29.5372 117.121 29.2958L117.733 29.5512C117.162 29.3091 116.624 28.9977 116.13 28.624L116.642 29.0225C116.133 28.6297 115.676 28.1739 115.282 27.6662L115.681 28.177C115.308 27.6836 114.996 27.1467 114.752 26.5781L115.008 27.1886C114.766 26.6039 114.599 25.9911 114.511 25.3648L114.603 26.0443C114.525 25.156 114.503 24.2636 114.537 23.3725V20.0112C114.528 19.5411 114.551 19.071 114.603 18.6038L114.511 19.2832C114.599 18.661 114.766 18.0525 115.008 17.4722L114.752 18.0827C114.995 17.5184 115.307 16.9864 115.681 16.4991L115.282 17.0099C115.66 16.5337 116.094 16.1049 116.575 15.7328L116.063 16.1313C116.552 15.7587 117.085 15.4473 117.651 15.2041L117.039 15.4595C117.62 15.2173 118.23 15.0508 118.854 14.964L118.173 15.0559C118.801 14.9768 119.437 14.9768 120.065 15.0559L119.384 14.964C120.022 15.0542 120.646 15.2259 121.241 15.4748L120.629 15.2194C121.19 15.4584 121.719 15.7646 122.206 16.1313L121.694 15.7328C122.199 16.1495 122.677 16.5965 123.128 17.0712L125.153 19.0789C126.597 20.5118 127.988 22.0137 129.762 23.0481C131.516 24.0467 133.468 24.65 135.48 24.8157C136.051 24.8693 145.328 24.8642 146.773 24.8642C148.112 24.8642 149.395 23.6893 149.333 22.31C149.322 21.636 149.049 20.9928 148.571 20.5162C148.093 20.0396 147.448 19.7669 146.773 19.7557L146.775 19.7302Z" fill="#FCFCFC"/>
<path d="M94.1602 12.4266C94.1602 13.5658 94.2396 14.7408 94.0962 15.8749L94.1884 15.1954C94.1003 15.8482 93.9281 16.4869 93.6763 17.0958L93.9323 16.4853C93.6749 17.0741 93.3446 17.6284 92.9491 18.1354L93.3485 17.6245C92.9685 18.1057 92.5327 18.5404 92.0503 18.9195L92.5624 18.521C92.0508 18.9147 91.4916 19.2425 90.898 19.4968L91.51 19.2413C90.8996 19.4926 90.2593 19.6643 89.6049 19.7522L90.286 19.6602C89.6402 19.7441 88.9864 19.7467 88.3399 19.6679L89.021 19.7599C88.3666 19.672 87.7263 19.5003 87.1159 19.249L87.7279 19.5044C87.1343 19.25 86.5752 18.9222 86.0635 18.5287L86.5756 18.9272C86.0954 18.5453 85.6622 18.108 85.2851 17.6245L85.6845 18.1354C85.2899 17.6251 84.9613 17.0673 84.7064 16.4751L84.9624 17.0856C84.7106 16.4767 84.5384 15.838 84.4503 15.1852L84.5425 15.8646C84.3837 14.608 84.4785 13.2951 84.4785 12.0333C84.4785 10.442 84.5476 8.83794 84.1021 7.28752C83.7306 6.00018 83.1035 4.80047 82.2581 3.75967C81.4126 2.71886 80.366 1.85822 79.1805 1.22887C77.8694 0.552289 76.4294 0.160549 74.9555 0.0794623C74.2215 0.05517 73.487 0.106527 72.7636 0.232716C72.2233 0.310808 71.6933 0.448737 71.1837 0.643948C69.8452 1.13287 68.6203 1.88803 67.5834 2.86358C66.5484 3.87981 65.7419 5.10397 65.2174 6.45484C64.6797 7.7575 64.5439 9.15977 64.5439 10.5569V18.4546C64.5439 20.498 64.5439 22.5593 64.5439 24.6103C64.5609 27.2604 65.5817 29.806 67.4016 31.7367C69.3052 33.7189 71.9177 34.8694 74.6687 34.9371C83.7538 35.1925 92.8902 34.9371 101.978 34.9371C103.317 34.9371 104.6 33.7622 104.538 32.3829C104.527 31.7089 104.254 31.0657 103.776 30.5891C103.298 30.1125 102.653 29.8398 101.978 29.8286C92.9516 29.8286 83.9228 29.8695 74.8966 29.8286C74.5395 29.8265 74.1829 29.8027 73.8288 29.7571L74.5099 29.8491C73.827 29.7519 73.1593 29.5682 72.5229 29.3025L73.1349 29.5579C72.5161 29.2901 71.933 28.947 71.3988 28.5362L71.9109 28.9347C71.4075 28.5373 70.9521 28.083 70.5538 27.5809L70.9532 28.0918C70.5409 27.5593 70.1968 26.9775 69.929 26.36L70.185 26.9705C69.9215 26.339 69.7408 25.6762 69.6473 24.9986L69.7395 25.678C69.6669 24.9337 69.643 24.1854 69.6678 23.438V11.5582C69.6366 10.7173 69.6579 9.87537 69.7318 9.03717L69.6473 9.70638C69.7352 9.05274 69.9073 8.41315 70.1594 7.80347L69.9033 8.42926C70.1583 7.83709 70.4869 7.27928 70.8815 6.76901L70.4821 7.27985C70.8621 6.79862 71.2978 6.36393 71.7803 5.98486L71.2682 6.38332C71.7805 5.99077 72.3395 5.66304 72.9326 5.4076L72.3206 5.66302C72.9314 5.41038 73.5727 5.23864 74.2283 5.15218L73.5471 5.24413C74.195 5.16239 74.8505 5.16239 75.4983 5.24413L74.8172 5.15218C75.4725 5.23986 76.1137 5.41156 76.7249 5.66302L76.1129 5.4076C76.7065 5.66187 77.2657 5.98969 77.7773 6.38332L77.2652 5.98486C77.7476 6.36393 78.1834 6.79862 78.5634 7.27985L78.164 6.76901C78.5503 7.28109 78.872 7.83871 79.1216 8.42926L78.8656 7.8188C79.1176 8.4232 79.2897 9.05771 79.3777 9.70638L79.2855 9.02695C79.3498 9.70607 79.3712 10.3885 79.3495 11.0703V13.8723C79.3365 14.7689 79.3887 15.6653 79.5057 16.5543C79.7241 18.042 80.3092 19.4523 81.2085 20.6589C82.2021 21.9769 83.4235 23.1314 84.9445 23.8262C87.246 24.9491 89.8929 25.1435 92.3344 24.369C94.7759 23.5945 96.824 21.9106 98.0524 19.6679C98.8554 18.1757 99.2759 16.5085 99.2764 14.8148V12.4343C99.2764 11.0984 98.0985 9.81876 96.7157 9.88007C96.0391 9.88802 95.3924 10.1597 94.9139 10.637C94.4354 11.1143 94.1631 11.7593 94.1551 12.4343L94.1602 12.4266Z" fill="#FCFCFC"/>
<path d="M57.0642 19.7295H37.2424C36.4486 19.7295 35.6548 19.7295 34.861 19.7295C34.5331 19.7273 34.2056 19.7059 33.8803 19.6656L34.5614 19.7576C33.9043 19.6708 33.2613 19.499 32.6486 19.2467L33.2606 19.5021C32.6644 19.2477 32.1019 18.9208 31.5859 18.529L32.0981 18.9274C31.5908 18.5326 31.1342 18.0771 30.7384 17.5711L31.1378 18.082C30.7444 17.5677 30.4167 17.0065 30.1622 16.4115L30.4183 17.022C30.1677 16.41 29.9956 15.7689 29.9061 15.114L29.9983 15.7934C29.9164 15.1455 29.9164 14.4899 29.9983 13.8419L29.9061 14.5214C29.9932 13.8659 30.1653 13.2245 30.4183 12.6134L30.1622 13.2238C30.4173 12.6291 30.745 12.068 31.1378 11.5533L30.7384 12.0642C31.137 11.5651 31.5954 11.1165 32.1032 10.7283L31.591 11.1268C32.1066 10.7344 32.6692 10.4075 33.2657 10.1536L32.6537 10.409C33.2672 10.1591 33.9099 9.98741 34.5665 9.8982L33.8854 9.99016C34.5707 9.90586 35.2639 9.90586 35.9492 9.99016L35.2681 9.8982C35.9252 9.985 36.5682 10.1567 37.1809 10.409L36.5689 10.1536C37.1651 10.4081 37.7276 10.7349 38.2436 11.1268L37.7314 10.7283C38.2387 11.1232 38.6953 11.5787 39.0911 12.0846L38.6917 11.5738C39.0851 12.0881 39.4128 12.6492 39.6673 13.2443L39.4112 12.6338C39.6618 13.2457 39.8339 13.8868 39.9233 14.5418L39.8312 13.8624C39.9063 14.721 39.9277 15.5834 39.8952 16.4447V19.285C39.8973 19.923 39.8571 20.5604 39.7748 21.193L39.867 20.5136C39.7092 21.6274 39.4097 22.7166 38.9759 23.7549L39.232 23.1445C38.7933 24.1817 38.2246 25.1593 37.5394 26.0537L37.9389 25.5429C37.2525 26.4255 36.4576 27.2184 35.5728 27.903L36.085 27.5046C35.19 28.1886 34.2117 28.7567 33.1735 29.1955L33.7855 28.94C32.747 29.3704 31.6576 29.6665 30.5437 29.8212L31.2249 29.7293C29.9446 29.8979 28.6642 29.8493 27.3839 29.8493C26.0447 29.8493 24.7618 31.0243 24.8233 32.4036C24.8345 33.0775 25.1079 33.7207 25.5857 34.1973C26.0635 34.6739 26.7083 34.9466 27.3839 34.9578C28.5796 34.9979 29.7765 34.9689 30.9688 34.871C33.2618 34.6383 35.4771 33.9133 37.4626 32.7458C41.1396 30.5262 43.9154 26.7332 44.7015 22.4957C45.1675 19.9925 45.0216 17.3872 45.0113 14.8611C45.0167 13.8046 44.8516 12.7541 44.5222 11.75C44.0948 10.5087 43.4449 9.35504 42.6043 8.34523C41.1521 6.6011 39.1288 5.42502 36.8916 5.02472C34.4385 4.6186 31.9393 4.93532 29.773 6.21244C27.6599 7.47127 26.0719 9.44702 25.2996 11.7781C24.9455 12.8612 24.7885 13.9987 24.8361 15.1369C24.8986 16.4839 25.2176 17.8067 25.7758 19.0347C26.2374 20.053 26.8725 20.9837 27.6528 21.7856C28.4331 22.6057 29.3552 23.2788 30.3747 23.7728C31.8261 24.4736 33.4176 24.8377 35.03 24.8379H57.0745C58.4137 24.8379 59.6966 23.663 59.6351 22.2837C59.622 21.6104 59.348 20.9683 58.8706 20.492C58.3932 20.0158 57.7495 19.7425 57.0745 19.7295H57.0642Z" fill="#FCFCFC"/>
<path d="M15.0646 12.0666V19.078C15.0723 19.7874 15.0321 20.4965 14.9443 21.2006L15.0365 20.5211C14.8804 21.632 14.5836 22.7186 14.153 23.7548L14.4091 23.1443C13.9705 24.1816 13.4017 25.1591 12.7165 26.0536L13.116 25.5428C12.4293 26.4189 11.6353 27.2057 10.7525 27.885L11.2646 27.4865C10.3696 28.1706 9.39138 28.7387 8.3532 29.1774L8.96519 28.922C7.92667 29.3523 6.83725 29.6485 5.72343 29.8032L6.40456 29.7113C5.12424 29.8798 3.84393 29.8313 2.56361 29.8313C1.2244 29.8313 -0.058478 31.0063 0.00297717 32.3856C0.0141795 33.0595 0.287556 33.7027 0.765361 34.1793C1.24317 34.6559 1.88799 34.9286 2.56361 34.9398C4.69406 34.9398 6.80402 34.9398 8.87813 34.3549C11.7338 33.5477 14.297 31.9395 16.263 29.7215C17.246 28.6226 18.0637 27.3871 18.6905 26.0536C19.0448 25.3004 19.3443 24.5228 19.5867 23.7267C19.8154 22.8891 19.9789 22.0352 20.0758 21.1725C20.2678 19.6961 20.1961 18.184 20.1961 16.7V12.0666C20.1961 10.7307 19.0182 9.45107 17.6355 9.51237C16.9601 9.52418 16.3156 9.79708 15.838 10.2736C15.3603 10.75 15.0867 11.3929 15.0749 12.0666H15.0646Z" fill="#FCFCFC"/>
</g>
<defs>
<clipPath id="clip0_1066_6586">
<rect width="193.996" height="44.505" fill="white"/>
</clipPath>
</defs>
</svg>
