<svg width="332" height="332" viewBox="0 0 332 332" fill="none" xmlns="http://www.w3.org/2000/svg">
<path d="M82.9997 290.5C98.2796 290.5 110.666 278.114 110.666 262.834C110.666 247.554 98.2796 235.167 82.9997 235.167C67.7198 235.167 55.333 247.554 55.333 262.834C55.333 278.114 67.7198 290.5 82.9997 290.5Z" stroke="#595959" stroke-width="15" stroke-linecap="round" stroke-linejoin="round"/>
<path d="M235.167 290.5C250.447 290.5 262.833 278.114 262.833 262.834C262.833 247.554 250.447 235.167 235.167 235.167C219.887 235.167 207.5 247.554 207.5 262.834C207.5 278.114 219.887 290.5 235.167 290.5Z" stroke="#595959" stroke-width="15" stroke-linecap="round" stroke-linejoin="round"/>
<path d="M235.166 235.167H82.9997V41.5H55.333" stroke="#595959" stroke-width="15" stroke-linecap="round" stroke-linejoin="round"/>
<path d="M268.768 138.347L262.833 179.834H83M83 69.167L193.653 77.0658L83 69.167Z" stroke="#595959" stroke-width="15" stroke-linecap="round" stroke-linejoin="round"/>
<path d="M235.167 41.5L290.5 96.8333" stroke="#595959" stroke-width="15" stroke-linecap="round" stroke-linejoin="round"/>
<path d="M290.5 41.5L235.167 96.8333" stroke="#595959" stroke-width="15" stroke-linecap="round" stroke-linejoin="round"/>
</svg>
