<svg width="34" height="31" viewBox="0 0 34 31" fill="none" xmlns="http://www.w3.org/2000/svg">
<path d="M10.6477 29.273C9.76404 26.2139 8.94227 23.5899 8.22654 20.9387C8.16224 20.5782 8.00189 20.243 7.76326 19.9703C7.52464 19.6975 7.21706 19.4978 6.87459 19.3934C5.10735 18.7498 3.37544 18.0338 1.63912 17.2905C0.852697 16.9733 0 16.6742 0 15.5412C0 14.4082 0.773171 13.8553 1.69214 13.5018L12.7374 8.99709L32.7206 0.812416C33.0961 0.65833 33.5689 0.245924 33.8516 0.56316C34.0637 0.79882 33.9798 1.4061 33.8958 1.82304C33.1359 5.5075 32.3671 9.18743 31.563 12.8583C30.485 17.8193 29.3893 22.7681 28.276 27.7049C27.6928 30.2972 25.8239 31.1447 23.5397 29.8077C20.9816 28.3122 18.4412 26.7849 15.9362 25.1942C15.163 24.7048 14.6902 24.7682 14.1071 25.4571C13.0732 26.6807 11.9598 27.8318 10.6477 29.273ZM30.7899 5.28544L30.8164 5.25371C29.6279 5.48937 28.9917 6.51812 28.1655 7.24777C24.0655 10.8733 19.9257 14.4717 16.1306 18.4462C15.3309 19.1713 14.5577 19.9236 13.7271 20.6079C13.113 21.1064 13.1351 21.3647 13.8331 21.7726C17.3941 23.8618 20.9286 26.0054 24.4808 28.1173C25.7135 28.847 26.3452 28.5705 26.6899 27.1067C27.653 22.8059 28.625 18.496 29.5307 14.1907C30.1625 11.1588 30.9931 8.16775 31.3996 5.09056C31.5365 4.88209 31.6072 4.43343 31.5012 4.46516C31.1389 4.5558 30.6883 4.71895 30.7899 5.28544ZM1.97932 15.4324C3.9984 16.2527 5.78332 16.9325 7.52406 17.6984C7.86108 17.8719 8.23636 17.9523 8.61289 17.9316C8.98943 17.9109 9.35421 17.7899 9.67126 17.5806C15.0495 14.5038 20.216 11.053 25.1347 7.2523C25.8504 6.69034 26.6368 6.19182 27.0301 5.15854L1.97932 15.4324ZM14.1954 17.0458L10.1617 19.3934C9.89659 19.552 9.88775 19.7786 9.97611 20.0641C10.1793 20.7167 10.2589 21.4237 10.6742 22.0128C11.0453 19.7061 13.3206 19.0172 14.1954 17.0458Z" fill="#454143"/>
<path d="M31.3687 5.08154C30.9622 8.15873 30.1316 11.1498 29.4998 14.1817C28.6162 18.4961 27.6221 22.7924 26.659 27.0977C26.332 28.5434 25.7002 28.838 24.4499 28.1083C20.9154 26.0055 17.3809 23.8619 13.8022 21.7636C13.1042 21.3557 13.0821 21.0974 13.6962 20.5989C14.5268 19.9146 15.3 19.1623 16.0997 18.4372C16.9833 18.4009 17.7609 18.8133 18.5782 19.049C21.0038 19.7424 21.8388 19.5022 23.257 17.4084C24.9359 14.9612 26.5088 12.4595 28.0595 9.93978C29.005 8.39892 30.22 7.01668 30.8164 5.25376L30.7899 5.28548L31.3687 5.08154Z" fill="#00C1F3"/>
<path d="M1.97937 15.4325L27.0257 5.16309C26.6325 6.19637 25.846 6.69488 25.1303 7.25684C20.2129 11.0558 15.0479 14.5051 9.67132 17.5806C9.35505 17.7914 8.99067 17.914 8.61412 17.9362C8.23758 17.9585 7.86188 17.8796 7.52411 17.7075C5.78337 16.9325 3.99845 16.2527 1.97937 15.4325Z" fill="#EEEEED"/>
<path d="M30.8164 5.25391C30.22 7.01683 29.005 8.39907 28.0595 9.93993C26.5088 12.4597 24.9359 14.9613 23.2924 17.4176C21.8741 19.525 21.0391 19.7516 18.6136 19.0582C17.7962 18.8225 17.0186 18.4101 16.135 18.4464C19.9302 14.4719 24.0876 10.8826 28.17 7.24796C28.9917 6.51832 29.6279 5.48957 30.8164 5.25391Z" fill="#EEEEED"/>
<path d="M31.3686 5.0815L30.7721 5.28544C30.6705 4.71895 31.1212 4.5558 31.4702 4.45609C31.5939 4.43797 31.5232 4.89116 31.3686 5.0815Z" fill="#EEEEED"/>
</svg>
