<svg id="Layer_1" data-name="Layer 1" xmlns="http://www.w3.org/2000/svg" viewBox="0 0 105.6 104.53"><defs><style>.cls-1{fill:#ef84b1;}.cls-2{fill:#393d3c;}</style></defs><path class="cls-1" d="M56.08,2.51a48.08,48.08,0,0,1,0,96.16Z"/><path class="cls-2" d="M82.87,84.35a44,44,0,0,1-51.3,1L16.42,89.71l3.09-12.47H10l-6.37,25.7,26.62-7.67A53,53,0,0,0,95.35,84.35Z"/><path class="cls-2" d="M42.53,44.6c.62-.7,1.23-1.41,1.84-2.12,1-1.2,2.59-2.36,2.67-4.09a12.08,12.08,0,0,0-1.1-4.81c-.38-1-.77-1.94-1.14-2.91-.67-1.77-1.54-4.24-2.51-5.28a4.72,4.72,0,0,0-5.38-.83s-10.42,5-7.21,15c0,0,6.21,28.26,37.49,34.07,0,0,11.22,1.61,14.22-5.21a12.14,12.14,0,0,0,1-5.14A4.31,4.31,0,0,0,79.92,60c-1.65-.94-3.12-1.82-5-2.75-1.63-.8-3.51-2-5.38-1.47-1.38.38-2.36,1.64-3.29,2.63C65,59.69,63.8,61,62.57,62.24,62.57,62.24,46.74,56.42,42.53,44.6Z"/></svg>